<svg width="40" height="54" viewBox="0 0 40 54" fill="none" xmlns="http://www.w3.org/2000/svg">
<path d="M20.2878 28.7913C15.3684 28.7913 11.3804 24.8032 11.3804 19.8838C11.3804 14.9643 15.3684 10.9763 20.2878 10.9763C25.2073 10.9763 29.1953 14.9643 29.1953 19.8838C29.1953 24.8032 25.2073 28.7913 20.2878 28.7913Z" fill="#CDAD98"/>
<path d="M20.2878 53.1082C20.2878 53.1082 0.575897 30.7713 0.575897 19.8848C0.575897 8.99809 9.40118 0.172607 20.2878 0.172607C31.1745 0.172607 40 8.99809 40 19.8847C40 30.7712 20.2878 53.1082 20.2878 53.1082ZM20.2878 6.274C12.772 6.274 6.67808 12.3668 6.67808 19.8838C6.67808 27.4007 12.772 33.4934 20.2878 33.4934C27.8038 33.4934 33.8975 27.4006 33.8975 19.8838C33.8975 12.3669 27.8038 6.274 20.2878 6.274Z" fill="#CDAD98"/>
</svg>
