<svg width="48" height="39" viewBox="0 0 48 39" xmlns="http://www.w3.org/2000/svg">
<path d="M32.7895 21.4917C27.5189 17.8936 20.5239 17.8652 15.2118 21.4917C13.624 22.5755 13.4176 24.8461 14.7817 26.2102C15.8244 27.253 17.4768 27.4047 18.7114 26.5683C21.8935 24.4121 26.096 24.4042 29.2897 26.5683C31.4701 28.0457 34.3526 26.3245 34.1107 23.7377C34.0255 22.8254 33.5438 22.0067 32.7895 21.4917ZM32.1809 25.1717C31.6347 25.718 30.7652 25.7939 30.1137 25.3524C26.4353 22.86 21.5804 22.8502 17.8877 25.3524C17.2361 25.7941 16.3667 25.7181 15.8204 25.1717C15.1065 24.4578 15.2126 23.2694 16.04 22.7048C20.8228 19.4394 27.1605 19.4271 31.9615 22.7048C32.7903 23.2706 32.8934 24.4593 32.1809 25.1717Z" />
<path d="M39.6899 14.9267C30.549 7.5488 17.4661 7.53668 8.31009 14.9267C6.88827 16.0744 6.77921 18.2085 8.07225 19.5015C9.18831 20.6174 10.9583 20.7106 12.1898 19.7179C19.0463 14.1907 28.9076 14.1535 35.8102 19.7179C37.881 21.3873 40.9693 19.8206 40.8274 17.1547C40.7812 16.2849 40.3665 15.4728 39.6899 14.9267ZM38.8893 18.4628C38.3052 19.047 37.3778 19.0951 36.7321 18.5744C29.3395 12.6152 18.7101 12.5753 11.268 18.5744C10.6223 19.0951 9.69493 19.0469 9.11083 18.4628C8.44898 17.8009 8.47211 16.6833 9.23264 16.0697C17.8053 9.15055 30.1368 9.10364 38.7675 16.0697C39.5283 16.6837 39.5507 17.8014 38.8893 18.4628Z" />
<path d="M47.4977 10.5369C47.4657 9.68235 47.0758 8.87243 46.4279 8.31477C33.5374 -2.78199 14.4386 -2.76124 1.57213 8.31468C0.92423 8.87243 0.53428 9.68235 0.502335 10.5369C0.401819 13.2286 3.56869 14.7316 5.60004 12.9839C16.1759 3.88332 31.8438 3.90039 42.3999 12.9839C44.4343 14.7342 47.5981 13.2256 47.4977 10.5369ZM45.558 11.794C44.9644 12.3879 43.9979 12.4213 43.3579 11.8705C32.2322 2.29699 15.7497 2.3126 4.64215 11.8705C4.00206 12.4214 3.03563 12.3878 2.44199 11.794C1.78096 11.1331 1.81355 10.0449 2.53038 9.4278C14.8696 -1.19428 33.1534 -1.17455 45.4697 9.42789C46.1781 10.0376 46.2268 11.1253 45.558 11.794Z" />
<path d="M24 38.6118C21.1655 38.6118 18.8594 36.3058 18.8594 33.4712C18.8594 30.6366 21.1655 28.3306 24 28.3306C26.8345 28.3306 29.1406 30.6366 29.1406 33.4712C29.1406 36.3058 26.8345 38.6118 24 38.6118ZM24 29.7993C21.9753 29.7993 20.3281 31.4465 20.3281 33.4712C20.3281 35.4959 21.9753 37.1431 24 37.1431C26.0247 37.1431 27.6719 35.4959 27.6719 33.4712C27.6719 31.4465 26.0247 29.7993 24 29.7993Z" />
</svg>
