<svg width="42" height="42" viewBox="0 0 42 42" xmlns="http://www.w3.org/2000/svg">
<path d="M37.6947 8.20052C37.4886 7.93478 37.1061 7.88639 36.8404 8.09254C36.5746 8.29868 36.5263 8.68117 36.7324 8.94691C38.6033 11.3589 39.6798 14.3136 39.8046 17.3424L31.6278 15.1515C31.9692 12.9847 32.1038 10.7837 32.0266 8.6003C31.9821 7.33649 31.8652 6.06602 31.68 4.80935C32.8288 5.37906 33.9044 6.10101 34.867 6.95449C35.1187 7.1776 35.5035 7.15438 35.7266 6.90285C35.9497 6.65116 35.9266 6.26632 35.675 6.04328C34.0842 4.633 32.2228 3.57013 30.2152 2.8926L30.8036 1.24402C30.9167 0.927296 30.7515 0.578907 30.4348 0.465889C30.1181 0.352872 29.7697 0.517933 29.6567 0.834658L29.044 2.55127C22.1511 0.840909 14.9276 3.97503 11.4372 10.206C11.3902 10.2933 11.3462 10.4048 11.3556 10.5542L11.5714 13.7285C11.6126 14.3345 12.0345 14.8473 12.6213 15.0045L18.6346 16.6158C19.212 16.7707 19.8416 16.5431 20.1817 16.0356L20.9634 14.8719L21.0585 16.2706C21.0998 16.8766 21.5216 17.3894 22.1084 17.5466L24.5267 18.1946L21.1214 30.9031L15.4253 30.8867H15.4236C15.0881 30.8867 14.8157 31.1582 14.8146 31.4939C14.8136 31.8302 15.0855 32.1036 15.4218 32.1045L27.3471 32.139H27.353C27.9492 32.139 28.5302 31.8951 28.9477 31.469L33.2396 27.0897C34.1252 26.186 35.4729 25.8604 36.6733 26.2607L37.9785 26.6958L29.8402 34.8903C29.4997 35.2332 29.0273 35.4299 28.5441 35.4299H4.97236C4.91074 34.5044 5.16706 33.6037 5.83306 32.94C6.38573 32.3892 7.11896 32.0862 7.89864 32.0862H7.9087L12.5796 32.1032H12.5819C12.9171 32.1032 13.1895 31.8321 13.1908 31.4965C13.192 31.1602 12.9204 30.8866 12.5841 30.8854L7.91292 30.8683C6.80086 30.8641 5.75934 31.2939 4.97333 32.0774C3.98321 33.0644 3.7545 34.4181 3.7545 35.7952C3.7545 36.2653 4.13691 36.6477 4.607 36.6477H6.07144L4.81176 39.4161C4.60806 39.8638 4.60116 40.3515 4.75371 40.7821H1.5142C1.17791 40.7821 0.905273 41.0547 0.905273 41.391C0.905273 41.7274 1.17791 42 1.5142 42H38.9856C39.3219 42 39.5945 41.7274 39.5945 41.391C39.5945 41.0547 39.3219 40.7821 38.9856 40.7821H33.2689C33.4215 40.3515 33.4146 39.8638 33.2109 39.416L31.279 35.17L39.2577 27.1359C39.6993 26.698 39.507 25.9161 38.9223 25.7265L37.0584 25.1052C35.4193 24.559 33.5789 25.0032 32.3697 26.2371L28.0779 30.6165C27.8881 30.8101 27.624 30.921 27.3531 30.921H27.3504L22.3811 30.9066L25.7029 18.5096L28.1215 19.1577C28.6989 19.3128 29.3287 19.0849 29.6688 18.5775L30.4505 17.4138L30.5456 18.8125C30.5868 19.4185 31.0087 19.9313 31.5954 20.0885L37.6087 21.6998C38.1861 21.8547 38.8158 21.6272 39.1559 21.1196L40.9299 18.4785C40.9823 18.3938 41.0335 18.2857 41.0334 18.1364C41.0792 14.5638 39.8939 11.0356 37.6947 8.20052V8.20052ZM6.47431 40.7821C6.38711 40.7821 6.30234 40.7636 6.22229 40.7272C5.91669 40.5881 5.78118 40.2262 5.92034 39.9204L7.40954 36.6476H8.74838L7.02916 40.4252C6.93052 40.6421 6.71276 40.7821 6.47431 40.7821V40.7821ZM18.4747 40.7821H8.20472L10.0863 36.6477H19.5823L18.4747 40.7821ZM19.7355 40.7821L20.8431 36.6477H27.9365L29.8181 40.7821H19.7355ZM32.1024 39.9204C32.2415 40.2263 32.1061 40.5882 31.7992 40.7277C31.7204 40.7638 31.6364 40.7821 31.5492 40.7821C31.3107 40.7821 31.0925 40.6417 30.9936 40.4252L29.2372 36.5658C29.6355 36.4718 30.0136 36.2987 30.3445 36.057L32.1024 39.9204ZM19.1707 15.3563C19.1224 15.4284 19.0335 15.4617 18.9497 15.4392L12.9364 13.828C12.8526 13.8056 12.7923 13.7323 12.7864 13.6457L12.6284 11.3214L20.4696 13.4225L19.1707 15.3563ZM21.0677 12.3218L12.8974 10.1326C15.8466 5.46326 21.1515 2.88139 26.5464 3.36261C25.5995 4.3956 24.73 5.50109 23.955 6.66285C22.7781 8.42672 21.8086 10.3282 21.0677 12.3218V12.3218ZM28.6578 17.8984C28.6094 17.9705 28.5206 18.0038 28.4367 17.9813L22.4235 16.3701C22.3397 16.3477 22.2795 16.2744 22.2735 16.1878L22.1155 13.8635L29.9568 15.9645L28.6578 17.8984ZM30.4446 14.8344L22.2496 12.6386C22.9524 10.7726 23.8648 8.99237 24.9681 7.33885C25.8646 5.99522 26.8932 4.73035 28.0258 3.57225C28.817 3.72586 29.5991 3.94832 30.3546 4.23363C30.6039 5.6897 30.7577 7.17119 30.8097 8.64334C30.8824 10.7061 30.7593 12.7855 30.4446 14.8344V14.8344ZM38.1449 20.4405C38.0965 20.5125 38.0076 20.5459 37.9238 20.5234L31.9105 18.9122C31.8268 18.8898 31.7664 18.8164 31.7606 18.7299L31.6026 16.4057L39.4438 18.5067L38.1449 20.4405Z"/>
</svg>
