<svg width="48" height="43" viewBox="0 0 48 43" fill="none" xmlns="http://www.w3.org/2000/svg">
<path d="M24.0456 5.50107C23.6566 5.50107 23.3411 5.81644 23.3411 6.2056C23.3411 6.59476 23.6566 6.91013 24.0456 6.91013C25.6697 6.91013 26.9909 8.23135 26.9909 9.85539C26.9909 11.4793 25.6697 12.8006 24.0456 12.8006C22.4216 12.8006 21.1004 11.4794 21.1004 9.85539C21.1004 9.07848 21.4002 8.34545 21.9447 7.7912C22.2174 7.5137 22.2135 7.06763 21.9359 6.79501C21.6583 6.52229 21.2122 6.52613 20.9396 6.80382C20.1347 7.6231 19.6914 8.70685 19.6914 9.85539C19.6914 12.2563 21.6447 14.2097 24.0457 14.2097C26.4468 14.2097 28.4 12.2563 28.4 9.85539C28.3999 7.45435 26.4467 5.50107 24.0456 5.50107Z" fill="#244F68"/>
<path d="M47.9897 42.0564L45.1775 26.5503C45.1081 26.1674 44.7415 25.9133 44.3586 25.9827C43.9757 26.0521 43.7218 26.4189 43.7911 26.8017L44.9802 33.3579L35.8131 22.7097L41.9787 21.3337L42.8916 21.8419L43.288 24.0278C43.3573 24.4107 43.724 24.6646 44.1069 24.5953C44.4898 24.526 44.7437 24.1592 44.6744 23.7764L44.2184 21.2626C44.1809 21.0551 44.0522 20.8753 43.868 20.7728L42.4296 19.9721C42.4296 19.9721 42.4296 19.9721 42.4295 19.9721L37.8837 17.4416H37.8837L34.3763 15.4892C34.3762 15.4892 34.3761 15.4891 34.3761 15.4891C34.3758 15.489 34.3756 15.4888 34.3753 15.4886C34.3482 15.4736 34.3205 15.4607 34.2921 15.4495C34.2832 15.4461 34.2741 15.4437 34.265 15.4406C34.2452 15.4337 34.2253 15.427 34.2052 15.4219C34.1937 15.419 34.1822 15.4173 34.1706 15.415C34.1525 15.4115 34.1343 15.4079 34.116 15.4058C34.1036 15.4043 34.0914 15.4038 34.0789 15.403C34.0612 15.4019 34.0435 15.401 34.0257 15.4012C34.0131 15.4013 34.0005 15.4022 33.9879 15.403C33.9704 15.4041 33.953 15.4057 33.9356 15.4081C33.9229 15.4099 33.9102 15.4121 33.8977 15.4147C33.8806 15.418 33.8637 15.422 33.8469 15.4266C33.8342 15.43 33.8217 15.4338 33.8092 15.4379C33.7929 15.4435 33.7767 15.4497 33.7607 15.4565C33.7483 15.4617 33.7361 15.4669 33.7238 15.4729C33.7184 15.4755 33.7129 15.4773 33.7077 15.48L32.0981 16.319C33.2955 14.0863 33.9004 11.924 33.9004 9.85529C33.9004 4.42107 29.4793 0 24.0451 0C18.6109 0 14.1904 4.42107 14.1904 9.85529C14.1904 11.944 14.8065 14.1283 16.0273 16.3841L14.293 15.48C14.2877 15.4772 14.282 15.4753 14.2765 15.4727C14.2647 15.4669 14.2525 15.4618 14.2405 15.4568C14.2243 15.4499 14.2079 15.4435 14.1913 15.4379C14.179 15.4338 14.1666 15.4301 14.1541 15.4267C14.1372 15.4221 14.1203 15.418 14.1032 15.4147C14.0905 15.4121 14.0778 15.4099 14.065 15.4081C14.0479 15.4057 14.0306 15.4042 14.0134 15.403C14.0004 15.4022 13.9875 15.4014 13.9747 15.4012C13.9574 15.401 13.9403 15.4019 13.923 15.403C13.9101 15.4038 13.8971 15.4043 13.8842 15.4059C13.8667 15.4079 13.8493 15.4114 13.832 15.4148C13.8197 15.4172 13.8073 15.419 13.7951 15.4221C13.7759 15.427 13.7571 15.4334 13.7382 15.4399C13.7284 15.4433 13.7183 15.4459 13.7085 15.4497C13.6802 15.4609 13.6525 15.4738 13.6255 15.4887C13.6253 15.4888 13.6251 15.489 13.6248 15.4892C13.6247 15.4892 13.6247 15.4893 13.6246 15.4893L4.13306 20.7728C3.94874 20.8753 3.82012 21.0551 3.78262 21.2626L1.10915 36.0034C1.03977 36.3862 1.29383 36.7529 1.67671 36.8223C2.05968 36.892 2.42624 36.6376 2.49562 36.2548L3.29765 31.8325L12.4159 27.0124L11.6826 36.4806L1.63658 40.9914L1.99012 39.0414C2.05949 38.6586 1.80552 38.2919 1.42265 38.2225C1.04005 38.1533 0.673208 38.4072 0.60374 38.79L0.0113327 42.0565C-0.0353549 42.3137 0.0643952 42.5758 0.27027 42.7369C0.396552 42.8357 0.549833 42.8866 0.704521 42.8866C0.802302 42.8866 0.900646 42.8663 0.99299 42.8249L12.3525 37.7244L23.7072 42.8227C23.7075 42.8228 23.7078 42.823 23.7081 42.8231L23.7119 42.8248C23.7183 42.8277 23.725 42.8296 23.7315 42.8324C23.7419 42.8367 23.7524 42.8407 23.7631 42.8445C23.7733 42.8482 23.7836 42.8519 23.7941 42.855C23.8009 42.8571 23.8076 42.8589 23.8144 42.8608C23.8232 42.8632 23.8319 42.8655 23.8409 42.8676C23.8555 42.871 23.8704 42.8736 23.8851 42.876C23.8921 42.8772 23.899 42.8789 23.9062 42.8798C23.911 42.8805 23.9157 42.8811 23.9205 42.8817C23.944 42.8844 23.9679 42.8858 23.9915 42.8861C23.9945 42.8861 23.9975 42.8866 24.0005 42.8866C24.002 42.8866 24.0035 42.8864 24.005 42.8864C24.0335 42.8862 24.0618 42.8838 24.0902 42.8802C24.0937 42.8797 24.0972 42.8799 24.1008 42.8793C24.1061 42.8786 24.1114 42.8768 24.1168 42.876C24.1389 42.8723 24.1609 42.8675 24.1826 42.8616C24.1886 42.86 24.1947 42.8591 24.2007 42.8574C24.2014 42.8572 24.202 42.8572 24.2026 42.857C24.2046 42.8565 24.2064 42.8554 24.2083 42.8548C24.2357 42.8463 24.2626 42.8367 24.2891 42.8248L35.6483 37.7243L47.0077 42.8247C47.0187 42.8295 47.0299 42.8332 47.0412 42.8375C47.0522 42.8418 47.0631 42.8466 47.0744 42.8504C47.0892 42.8552 47.1043 42.8589 47.1193 42.8627C47.1285 42.8652 47.1375 42.8682 47.147 42.8701C47.1651 42.8741 47.1834 42.8766 47.2017 42.8791C47.2082 42.88 47.2146 42.8815 47.2212 42.8822C47.2462 42.885 47.2712 42.8864 47.2963 42.8864H47.2964C47.2964 42.8864 47.2965 42.8864 47.2965 42.8864C47.3308 42.8864 47.365 42.8829 47.3991 42.8779C47.407 42.8768 47.4149 42.8756 47.4227 42.8741C47.4564 42.868 47.4898 42.8601 47.5228 42.8489C47.5248 42.8481 47.5269 42.8471 47.5289 42.8464C47.5507 42.8388 47.5724 42.8305 47.5935 42.8205C47.5997 42.8175 47.6051 42.8134 47.6112 42.8103C47.6289 42.8014 47.6459 42.7912 47.663 42.7806C47.6801 42.7702 47.697 42.7597 47.7131 42.7478C47.7186 42.7437 47.7248 42.7408 47.7303 42.7365C47.7427 42.7269 47.7535 42.7157 47.7651 42.7052C47.7744 42.6969 47.784 42.689 47.7929 42.6803C47.8143 42.6592 47.8338 42.6367 47.8519 42.6134C47.8553 42.609 47.8593 42.6051 47.8627 42.6006C47.8837 42.5721 47.9023 42.5422 47.9187 42.5111C47.9233 42.5024 47.9267 42.4931 47.931 42.4841C47.9419 42.4612 47.9519 42.4381 47.9604 42.4142C47.9646 42.4022 47.968 42.39 47.9715 42.3777C47.9779 42.3557 47.9833 42.3335 47.9875 42.3109C47.9899 42.298 47.9922 42.285 47.9939 42.2718C47.9969 42.2479 47.9984 42.2236 47.999 42.1994C47.9993 42.1878 48.0002 42.1764 47.9999 42.1647C47.9994 42.1289 47.9964 42.0926 47.9897 42.0564ZM35.606 17.7863L34.8837 17.9552L34.8375 17.3585L35.606 17.7863ZM34.0691 25.6825L31.1268 23.3851C30.9232 23.2262 30.6491 23.1913 30.4121 23.2944L24.7079 25.7771V25.005C25.1341 24.6579 26.1025 23.8394 27.2631 22.6648L33.6191 19.8726L34.0691 25.6825ZM33.4137 17.2225L33.5037 18.3842L29.5331 20.1286C29.9274 19.6399 30.295 19.1538 30.6361 18.6703L33.4137 17.2225ZM14.5873 17.2225L17.5076 18.7448C17.9401 19.3529 18.4138 19.9655 18.9301 20.5821C19.3815 21.1211 19.8314 21.6221 20.2643 22.0806L14.2774 21.2239L14.5873 17.2225ZM12.5445 25.3506L3.61724 30.0696L4.05206 27.672L4.06321 27.6103L12.7229 23.0464L12.5445 25.3506ZM12.8516 21.3859L4.38271 25.8492L5.10946 21.842L13.1635 17.3586L12.9611 19.9724L12.8516 21.3859ZM13.0933 36.5124L13.7603 27.8997L22.0825 40.5486L13.0933 36.5124ZM23.296 33.797L18.956 26.9572L23.296 27.4768V33.797ZM23.296 26.0577L17.6495 25.3816C17.3796 25.3498 17.1147 25.4754 16.9697 25.7056C16.8247 25.9358 16.8251 26.2288 16.9709 26.4587L23.296 36.427V39.8295L13.9379 25.6062L14.1683 22.6317L21.9415 23.744C22.5277 24.288 23.0029 24.692 23.2959 24.9332V26.0577H23.296ZM24.0457 23.7217C22.2666 22.2212 15.5994 16.1754 15.5994 9.85538C15.5993 5.19807 19.3884 1.40906 24.0457 1.40906C28.703 1.40906 32.492 5.19807 32.492 9.85538C32.492 16.1754 25.8248 22.2213 24.0457 23.7217ZM24.705 41.0935V37.9663L26.8112 40.1477L24.705 41.0935ZM28.1775 39.5342L24.705 35.9376V27.3148L30.5899 24.7536L34.2162 27.5851L34.9076 36.5124L28.1775 39.5342ZM34.9937 19.3764L37.4364 18.8051L39.1687 19.7695L40.1272 20.3031L35.1514 21.4136L34.9937 19.3764ZM36.3185 36.4806L35.7685 29.379L44.8191 40.2975L36.3185 36.4806ZM35.5799 26.9437L35.3885 24.4715L35.3804 24.3668L45.4764 36.094L46.1237 39.6633L35.5799 26.9437Z" fill="#244F68"/>
</svg>
