<svg width="31" height="20" viewBox="0 0 31 20" xmlns="http://www.w3.org/2000/svg">
<path d="M1.40547 11.0644L9.83532 19.4943C10.4226 20.0816 11.3647 20.0816 11.952 19.4943C12.5392 18.907 12.5392 17.9649 11.952 17.3776L6.0792 11.5049L28.5303 11.5049C29.3622 11.5049 30.0352 10.832 30.0352 9.99999C30.0352 9.16802 29.3622 8.4951 28.5303 8.4951L6.09144 8.4951L11.9642 2.62234C12.5515 2.03506 12.5515 1.09298 11.9642 0.505703C11.3769 -0.0815732 10.4348 -0.0815732 9.84756 0.505702L1.4177 8.93555C1.12406 9.22919 0.977245 9.60847 0.977245 9.99999C0.977245 10.3915 1.11183 10.7708 1.40547 11.0644Z"/>
</svg>
