<svg width="41" height="42" viewBox="0 0 41 42" xmlns="http://www.w3.org/2000/svg">
<path d="M3.47383 36.9287H3.46695C3.12195 36.9287 2.8457 37.2081 2.8457 37.5537C2.8457 37.8994 3.1282 38.1787 3.47383 38.1787C3.81883 38.1787 4.09883 37.8994 4.09883 37.5537C4.09883 37.2081 3.8182 36.9287 3.47383 36.9287Z" />
<path d="M30.9093 1.7056C30.9087 1.70623 30.9087 1.70685 30.908 1.70748L24.0218 8.59373C22.8055 9.81185 22.8055 11.795 24.0224 13.0144L24.9037 13.895L20.0043 18.7944L14.5493 13.3387C14.7955 12.7862 14.9287 12.185 14.928 11.5619C14.928 10.4056 14.4805 9.31873 13.6705 8.49748C13.663 8.48935 13.6605 8.47873 13.653 8.4706L6.58303 1.4006C6.56616 1.38373 6.54303 1.37623 6.52428 1.36123C6.48991 1.33373 6.45616 1.30935 6.41678 1.28998C6.37803 1.27123 6.33991 1.25873 6.29928 1.24873C6.27491 1.24185 6.25553 1.22748 6.22991 1.22373L4.68491 1.0006C4.65553 0.996228 4.62928 1.0056 4.60053 1.0056C4.56928 1.0056 4.53991 0.995603 4.50803 1.0006C4.49428 1.00248 4.48428 1.01123 4.47116 1.0131C4.43303 1.02185 4.39928 1.03748 4.36366 1.05185C4.32241 1.06873 4.28241 1.08435 4.24616 1.10873C4.21803 1.1281 4.19616 1.15248 4.17116 1.17623C4.13803 1.2081 4.10616 1.23748 4.08053 1.27498C4.06116 1.30498 4.04928 1.33873 4.03428 1.37248C4.01616 1.41248 3.99803 1.45185 3.98928 1.4956C3.98678 1.50873 3.97866 1.51748 3.97678 1.5306C3.97241 1.56185 3.98178 1.5906 3.98178 1.6206C3.98178 1.6506 3.97241 1.6781 3.97678 1.7081L4.19678 3.25623C4.20116 3.2831 4.21491 3.30623 4.22303 3.3331C4.23178 3.36748 4.24053 3.39998 4.25616 3.43248C4.27803 3.47748 4.30678 3.51685 4.33741 3.55435C4.35178 3.57185 4.35803 3.59373 4.37428 3.60935L10.1174 9.35248C10.6037 9.83935 10.6037 10.6319 10.118 11.1181C9.63053 11.605 8.83866 11.6044 8.35116 11.1187L2.60866 5.37623C2.58928 5.35623 2.56303 5.3481 2.54116 5.33185C2.51116 5.3081 2.48178 5.28623 2.44678 5.26873C2.40428 5.24685 2.36053 5.2331 2.31553 5.22185C2.29428 5.21685 2.27678 5.20373 2.25428 5.2006L0.709284 4.97685C0.678034 4.97185 0.649284 4.98123 0.619284 4.98123C0.589284 4.98123 0.561784 4.97185 0.531784 4.97623C0.520534 4.9781 0.513034 4.98498 0.502409 4.98685C0.451784 4.99685 0.406784 5.0156 0.360534 5.03685C0.333034 5.04998 0.304284 5.05998 0.278659 5.07685C0.239909 5.10185 0.209909 5.13435 0.178034 5.16748C0.153034 5.19373 0.128034 5.21685 0.107409 5.24623C0.0855341 5.27873 0.0717841 5.31498 0.0567841 5.35185C0.0392841 5.39123 0.0224091 5.42998 0.0130341 5.4731C0.0111591 5.48498 0.00365907 5.49373 0.00178407 5.50623C-0.00259093 5.5356 0.00678407 5.5631 0.00678407 5.59185C0.00615906 5.62248 -0.00321593 5.65123 0.00115907 5.6831L0.221159 7.23185C0.226159 7.26373 0.241784 7.28998 0.250534 7.31998C0.259284 7.34873 0.266159 7.37623 0.278659 7.40435C0.303034 7.4556 0.334909 7.49998 0.370534 7.54248C0.382409 7.5556 0.386159 7.5731 0.399284 7.5856L7.46991 14.6562C7.47866 14.665 7.48991 14.6681 7.49928 14.6756C8.32053 15.4844 9.40616 15.9312 10.5605 15.9319H10.5618C11.1849 15.9319 11.7868 15.7981 12.3393 15.5525L17.7943 21.0069L14.4124 24.3894C14.168 24.1456 13.7743 24.1462 13.5299 24.39L12.6462 25.2744L12.203 24.8319C11.9587 24.5875 11.5637 24.5875 11.3193 24.8319L1.02741 35.1218C1.02678 35.1225 1.02616 35.1225 1.02553 35.1231C0.371784 35.7769 0.00928407 36.6437 0.00428407 37.5644C-9.09349e-05 38.4875 0.355534 39.3544 1.00553 40.0043C1.67178 40.6706 2.54866 41.0043 3.42803 41.0037C4.31678 41.0037 5.20803 40.6637 5.88741 39.9843C5.88866 39.9831 5.88866 39.9818 5.88991 39.9806L16.1805 29.6906C16.4249 29.4462 16.4249 29.0512 16.1805 28.8069L15.738 28.365L16.6224 27.4818C16.7443 27.36 16.8055 27.2 16.8055 27.0393C16.8055 27.0294 16.8005 27.0212 16.7999 27.0112C16.793 26.8612 16.7368 26.7119 16.623 26.5975L20.0049 23.2162L23.0424 26.2537C22.7987 26.4981 22.7987 26.8925 23.043 27.1369L23.9274 28.0212L23.4849 28.4637C23.2405 28.7081 23.2405 29.1031 23.4849 29.3475L34.1087 39.9712C34.1099 39.9725 34.1099 39.9737 34.1112 39.975C34.7905 40.6544 35.6812 40.9944 36.5699 40.9944C37.4493 40.9944 38.3268 40.6612 38.993 39.9944C40.3337 38.6537 40.3249 36.4644 38.9737 35.1125C38.9724 35.1112 38.9712 35.1112 38.9699 35.11L28.3462 24.485C28.1018 24.2406 27.7068 24.2406 27.4624 24.485L27.0193 24.9281L26.1355 24.0431C25.8912 23.7987 25.4968 23.7987 25.2524 24.0425L22.2162 21.0056L27.1162 16.1056L28.0012 16.9906C28.5887 17.5781 29.3737 17.9025 30.2099 17.9025C31.0462 17.9025 31.8312 17.5781 32.4187 16.9906L39.3068 10.1025C39.3068 10.1025 39.3068 10.1025 39.3068 10.1019H39.3074C40.1312 9.2756 40.9687 7.34373 37.3155 3.69123C33.6649 0.0418535 31.7355 0.881853 30.9093 1.7056ZM10.5605 14.6812C9.72741 14.6812 8.94428 14.3562 8.35553 13.7669C8.34928 13.76 8.34053 13.7581 8.33366 13.7525L1.42928 6.84748L1.35616 6.33248L1.87241 6.40748L7.46678 12.0025L7.46803 12.0037C7.46866 12.0044 7.46928 12.0044 7.46928 12.005C7.95553 12.49 8.59428 12.7325 9.23303 12.7325C9.87241 12.7325 10.513 12.4894 11.0005 12.0025C11.9743 11.0281 11.9749 9.4456 11.003 8.47123C11.0024 8.47123 11.0024 8.4706 11.0018 8.46998L5.40491 2.8731L5.33178 2.35748L5.84678 2.43185L12.7512 9.33685C12.7574 9.3431 12.7587 9.3506 12.7643 9.35685C13.353 9.9456 13.678 10.7287 13.678 11.5625C13.678 12.3956 13.3537 13.1787 12.7655 13.7675C12.1768 14.3569 11.3943 14.6812 10.5605 14.6812ZM13.4174 14.8625C13.4962 14.7944 13.5755 14.7262 13.6499 14.6519C13.7243 14.5775 13.793 14.4981 13.8612 14.4187L19.1205 19.6787L18.6774 20.1219L13.4174 14.8625ZM3.42741 39.7556C2.84491 39.7556 2.29866 39.5306 1.88928 39.1206C1.47678 38.7081 1.25116 38.1575 1.25366 37.5706C1.25678 36.9818 1.48928 36.4268 1.90803 36.0075C1.90866 36.0069 1.90928 36.0068 1.90991 36.0062L11.7599 26.1562L14.4087 28.8037C14.4099 28.8043 14.4099 28.8056 14.4105 28.8062C14.4112 28.8069 14.4124 28.8069 14.413 28.8081L14.8543 29.2487L5.00366 39.0993C5.00303 39.1 5.00241 39.1012 5.00178 39.1018C4.58241 39.5206 4.02741 39.7525 3.43928 39.7556C3.43553 39.7556 3.43178 39.7556 3.42741 39.7556ZM13.5287 26.1569L13.9705 25.7143L15.2949 27.0387H15.2955L14.853 27.4806L13.5287 26.1569ZM38.1093 39.1112C37.258 39.9631 35.8624 39.9562 34.9974 39.0931C34.9968 39.0925 34.9962 39.0912 34.9955 39.0906L24.8105 28.9056L27.9037 25.8112L38.088 35.9968C38.0887 35.9975 38.0899 35.9981 38.0905 35.9987C38.953 36.8625 38.9618 38.2581 38.1093 39.1112ZM24.8112 27.1375L24.3687 26.695L25.6912 25.3712C25.6918 25.3706 25.693 25.3706 25.693 25.37L26.1355 25.8125L24.8112 27.1375ZM24.3687 24.9269L23.9262 25.37L20.8887 22.3325L21.3312 21.89L24.3687 24.9269ZM15.7387 25.7143L15.2962 25.2712L19.1174 21.45C19.118 21.4494 19.1193 21.4487 19.1199 21.4481C19.1205 21.4475 19.1212 21.4462 19.1218 21.4456L20.4443 20.1231C20.4449 20.1225 20.4462 20.1219 20.4468 20.1212C20.4474 20.1206 20.448 20.1194 20.4487 20.1187L25.7874 14.7794L26.2312 15.2231L15.7387 25.7143ZM38.4224 9.21998L31.5343 16.1075C30.803 16.8375 29.6155 16.8375 28.8843 16.1075L24.9068 12.1319C24.1762 11.3994 24.1762 10.2094 24.9062 9.4781L31.7912 2.59185C31.7918 2.59123 31.7924 2.59123 31.793 2.5906C32.6237 1.75935 34.358 2.50248 36.4318 4.57623C38.5074 6.65185 39.2518 8.3881 38.4224 9.21998Z" />
<path d="M32.6769 5.24374C32.4325 4.99936 32.0375 4.99936 31.7931 5.24374L27.1169 9.91999C26.8725 10.1644 26.8725 10.5594 27.1169 10.8037C27.2388 10.9256 27.3988 10.9869 27.5588 10.9869C27.7188 10.9869 27.8788 10.9256 28.0006 10.8037L32.6769 6.12749C32.9213 5.88311 32.9213 5.48811 32.6769 5.24374Z" />
<path d="M34.2196 6.78683C33.9752 6.54245 33.5802 6.54245 33.3358 6.78683L28.6608 11.4631C28.4164 11.7075 28.4164 12.1025 28.6608 12.3468C28.7827 12.4687 28.9427 12.53 29.1027 12.53C29.2627 12.53 29.4227 12.4687 29.5446 12.3468L34.2196 7.67058C34.4639 7.4262 34.4639 7.03058 34.2196 6.78683Z" />
<path d="M34.8849 8.33621L30.2087 13.0118C29.9643 13.2562 29.9643 13.6512 30.2087 13.8956C30.3305 14.0175 30.4905 14.0787 30.6505 14.0787C30.8105 14.0787 30.9705 14.0175 31.0924 13.8956L35.7687 9.21996C36.0131 8.97559 36.0131 8.58059 35.7687 8.33621C35.5243 8.09184 35.1293 8.09246 34.8849 8.33621Z" />
<path d="M36.5617 36.9212H36.5548C36.2098 36.9212 35.9336 37.2006 35.9336 37.5462C35.9336 37.8919 36.2161 38.1712 36.5617 38.1712C36.9067 38.1712 37.1867 37.8919 37.1867 37.5462C37.1867 37.2006 36.9067 36.9212 36.5617 36.9212Z" />
</svg>
