<svg width="31" height="30" viewBox="0 0 31 30" fill="none" xmlns="http://www.w3.org/2000/svg">
<path fill-rule="evenodd" clip-rule="evenodd" d="M0.5 15C0.5 6.71573 7.21573 0 15.5 0C23.7843 0 30.5 6.71573 30.5 15C30.5 23.2843 23.7843 30 15.5 30C7.21573 30 0.5 23.2843 0.5 15Z" fill="#55ACEE"/>
<path fill-rule="evenodd" clip-rule="evenodd" d="M15.0508 12.1922L15.0822 12.7112L14.5576 12.6477C12.648 12.404 10.9798 11.5778 9.56334 10.1902L8.87085 9.50169L8.69248 10.0101C8.31477 11.1435 8.55609 12.3405 9.343 13.1455C9.76269 13.5904 9.66826 13.654 8.9443 13.3891C8.69248 13.3044 8.47215 13.2408 8.45116 13.2726C8.37772 13.3468 8.62953 14.3107 8.82888 14.692C9.10168 15.2217 9.65777 15.7407 10.2663 16.0479L10.7804 16.2915L10.1719 16.3021C9.58432 16.3021 9.56334 16.3127 9.62629 16.5351C9.83613 17.2236 10.665 17.9545 11.5883 18.2723L12.2388 18.4947L11.6723 18.8337C10.8329 19.321 9.84663 19.5964 8.86036 19.6175C8.38821 19.6281 8 19.6705 8 19.7023C8 19.8082 9.28005 20.4014 10.025 20.6344C12.2598 21.3229 14.9144 21.0264 16.9079 19.8506C18.3243 19.0138 19.7408 17.3507 20.4018 15.7407C20.7585 14.8827 21.1152 13.315 21.1152 12.5629C21.1152 12.0757 21.1467 12.0121 21.7343 11.4295C22.0805 11.0906 22.4058 10.7198 22.4687 10.6139C22.5737 10.4126 22.5632 10.4126 22.0281 10.5927C21.1362 10.9105 21.0103 10.8681 21.451 10.3915C21.7762 10.0525 22.1645 9.43813 22.1645 9.25806C22.1645 9.22628 22.0071 9.27924 21.8287 9.37458C21.6398 9.4805 21.2202 9.63939 20.9054 9.73472L20.3388 9.91479L19.8247 9.56524C19.5414 9.37458 19.1427 9.16273 18.9329 9.09917C18.3978 8.95087 17.5794 8.97206 17.0967 9.14154C15.7852 9.6182 14.9563 10.8469 15.0508 12.1922Z" fill="white"/>
</svg>
