<svg width="37" height="37" viewBox="0 0 37 37" fill="none" xmlns="http://www.w3.org/2000/svg">
<path d="M36.9926 14.1446C36.9887 14.1021 36.9803 14.0601 36.9673 14.0194C36.9588 13.9831 36.947 13.9476 36.9321 13.9133C36.9149 13.8799 36.8942 13.8482 36.8705 13.8189C36.8467 13.7842 36.8192 13.7522 36.7885 13.7233C36.7786 13.7147 36.7743 13.7029 36.7638 13.6943L30.833 9.08826V4.31444C30.833 3.2927 30.0047 2.46435 28.983 2.46435H22.2998L19.6239 0.386677C18.9628 -0.128892 18.0358 -0.128892 17.3748 0.386677L14.6983 2.46435H8.0151C6.99336 2.46435 6.165 3.29262 6.165 4.31444V9.08833L0.236104 13.6944C0.225625 13.7031 0.221289 13.7148 0.21146 13.7234C0.180746 13.7522 0.153211 13.7842 0.129434 13.819C0.10573 13.8483 0.085061 13.8799 0.0677886 13.9134C0.0528289 13.9476 0.0411212 13.9831 0.0326657 14.0195C0.0198018 14.0596 0.0113463 14.1009 0.00737147 14.1428C0.00737147 14.1558 0 14.1669 0 14.1798V35.1493C0.000867232 35.5416 0.127772 35.9231 0.361997 36.2377C0.365683 36.2433 0.366333 36.2501 0.370597 36.255C0.374933 36.2599 0.384184 36.2655 0.390326 36.2723C0.736786 36.7282 1.27563 36.9969 1.84822 36.9994H35.1499C35.7247 36.9977 36.2658 36.7276 36.6127 36.2692C36.6176 36.2631 36.6251 36.2612 36.6293 36.2551C36.6337 36.2489 36.6342 36.2434 36.638 36.2378C36.8722 35.9231 36.9991 35.5416 37 35.1494V14.1816C36.9999 14.1686 36.9932 14.1575 36.9926 14.1446ZM18.129 1.35978C18.3443 1.18865 18.6493 1.18865 18.8647 1.35978L20.2874 2.46427H16.7105L18.129 1.35978ZM2.00359 35.766L18.129 23.2403C18.3445 23.0694 18.6493 23.0694 18.8647 23.2403L34.9945 35.766H2.00359ZM35.7666 34.8046L19.6239 22.2671C18.9627 21.7519 18.036 21.7519 17.3748 22.2671L1.23147 34.8046V15.1208L11.3373 22.9683C11.6066 23.1771 11.9941 23.1281 12.2029 22.8588C12.4117 22.5895 12.3627 22.202 12.0934 21.9932L1.82661 14.0212L6.16508 10.6497V15.4149C6.16508 15.7555 6.44122 16.0316 6.78175 16.0316C7.12236 16.0316 7.39843 15.7555 7.39843 15.4149V4.31437C7.39843 3.97376 7.67449 3.69769 8.0151 3.69769H28.9828C29.3234 3.69769 29.5995 3.97376 29.5995 4.31437V15.4149C29.5995 15.7555 29.8755 16.0316 30.2162 16.0316C30.5568 16.0316 30.8328 15.7555 30.8328 15.4149V10.6497L35.1713 14.0212L24.8867 22.0075C24.7097 22.1415 24.6185 22.3604 24.6478 22.5804C24.6771 22.8005 24.8225 22.9878 25.0284 23.0709C25.2343 23.1539 25.4689 23.1199 25.6427 22.9818L35.7664 15.1208V34.8046H35.7666Z" fill="#244F68"/>
<path d="M25.8965 14.7989V12.3321C25.8965 8.24502 22.5832 4.93176 18.4961 4.93176C14.409 4.93176 11.0957 8.24502 11.0957 12.3321C11.0957 16.4193 14.409 19.7325 18.4961 19.7325C18.8367 19.7325 19.1128 19.4564 19.1128 19.1158C19.1128 18.7752 18.8367 18.4992 18.4961 18.4992C15.0902 18.4992 12.3291 15.7381 12.3291 12.3322C12.3291 8.9263 15.0902 6.16526 18.4961 6.16526C21.902 6.16526 24.663 8.9263 24.663 12.3322V14.799C24.663 15.4802 24.1108 16.0324 23.4296 16.0324C22.7484 16.0324 22.1962 15.4802 22.1962 14.799V12.3322C22.1962 11.9916 21.9201 11.7155 21.5795 11.7155C21.2389 11.7155 20.9628 11.9916 20.9628 12.3322C20.9628 13.6946 19.8584 14.799 18.4961 14.799C17.1337 14.799 16.0293 13.6946 16.0293 12.3322C16.0293 10.9699 17.1337 9.86544 18.4961 9.86544C18.8367 9.86544 19.1128 9.58938 19.1128 9.24877C19.1128 8.90816 18.8367 8.6321 18.4961 8.6321C16.84 8.62841 15.3832 9.72553 14.9293 11.3182C14.4754 12.9109 15.1351 14.6112 16.5443 15.481C17.9536 16.3508 19.7691 16.1784 20.9894 15.0587C21.1236 16.3629 22.2572 17.3326 23.5664 17.2633C24.8757 17.1939 25.9006 16.11 25.8965 14.7989Z" fill="#244F68"/>
</svg>
