<svg width="45" height="37" viewBox="0 0 45 37" xmlns="http://www.w3.org/2000/svg">
<path d="M40.6228 37H3.43838C2.52649 36.9985 1.65241 36.6354 1.00784 35.9904C0.363276 35.3453 0.000832153 34.471 0 33.5591V11.357C0.000999754 10.4449 0.363776 9.57039 1.00873 8.92544C1.65369 8.28048 2.52816 7.9177 3.44026 7.9167H19.6954L20.6202 4.71817C20.802 4.08866 21.1831 3.5351 21.7062 3.14056C22.2294 2.74602 22.8664 2.53178 23.5216 2.53H33.2318C33.8889 2.52706 34.5289 2.73922 35.0541 3.13409C35.5794 3.52896 35.961 4.08485 36.1407 4.71691L37.0592 7.9167H40.6228C41.5353 7.9172 42.4103 8.27974 43.0558 8.92473C43.7013 9.56973 44.0644 10.4445 44.0656 11.357V33.5591C44.0646 34.4717 43.7015 35.3466 43.056 35.9917C42.4105 36.6369 41.5354 36.9995 40.6228 37ZM3.43838 9.17572C2.86041 9.17689 2.30647 9.40713 1.89796 9.816C1.48945 10.2249 1.25968 10.779 1.25902 11.357V33.5591C1.25952 34.1375 1.48947 34.6921 1.8984 35.1012C2.30734 35.5102 2.86186 35.7403 3.44026 35.741H40.6228C41.2016 35.7408 41.7567 35.5109 42.1661 35.1019C42.5756 34.6928 42.8059 34.1379 42.8066 33.5591V11.357C42.8058 10.7786 42.5756 10.2242 42.1666 9.81529C41.7576 9.40639 41.2031 9.17639 40.6247 9.17572H36.5852C36.4485 9.1757 36.3156 9.13122 36.2065 9.049C36.0973 8.96678 36.0179 8.85129 35.9802 8.71996L34.9314 5.06881C34.8259 4.6998 34.6028 4.37532 34.296 4.14468C33.9892 3.91403 33.6156 3.78981 33.2318 3.7909H23.5216C23.1395 3.79203 22.768 3.91707 22.463 4.14727C22.158 4.37746 21.9359 4.70038 21.8301 5.06755L20.7738 8.72121C20.7359 8.85221 20.6565 8.96735 20.5475 9.04931C20.4385 9.13128 20.3058 9.17564 20.1695 9.17572H3.43838Z"/>
<path d="M31.668 6.99069H25.0846C24.9176 6.99069 24.7575 6.92436 24.6395 6.80631C24.5214 6.68825 24.4551 6.52814 24.4551 6.36118C24.4551 6.19422 24.5214 6.03411 24.6395 5.91605C24.7575 5.798 24.9176 5.73167 25.0846 5.73167H31.668C31.8349 5.73167 31.9951 5.798 32.1131 5.91605C32.2312 6.03411 32.2975 6.19422 32.2975 6.36118C32.2975 6.52814 32.2312 6.68825 32.1131 6.80631C31.9951 6.92436 31.8349 6.99069 31.668 6.99069Z"/>
<path d="M28.3775 34.1458C25.9957 34.1458 23.6673 33.4395 21.6869 32.1162C19.7066 30.7929 18.163 28.9121 17.2516 26.7116C16.3401 24.5111 16.1017 22.0897 16.5664 19.7537C17.0311 17.4176 18.1781 15.2719 19.8624 13.5877C21.5466 11.9036 23.6924 10.7567 26.0285 10.2921C28.3645 9.82751 30.7859 10.0661 32.9864 10.9776C35.1868 11.8892 37.0676 13.4328 38.3907 15.4133C39.7139 17.3937 40.4201 19.7221 40.42 22.1039C40.4163 25.2966 39.1463 28.3575 36.8887 30.615C34.6311 32.8725 31.5701 34.1423 28.3775 34.1458ZM28.3775 11.3204C26.2447 11.3204 24.1598 11.9529 22.3865 13.1378C20.6131 14.3227 19.231 16.0068 18.4148 17.9772C17.5987 19.9477 17.3851 22.1159 17.8012 24.2077C18.2173 26.2995 19.2443 28.2209 20.7524 29.729C22.2605 31.2371 24.1819 32.2641 26.2737 32.6802C28.3655 33.0963 30.5337 32.8827 32.5041 32.0665C34.4745 31.2504 36.1587 29.8682 37.3436 28.0949C38.5285 26.3216 39.1609 24.2367 39.1609 22.1039C39.1569 19.2455 38.0194 16.5053 35.9979 14.4844C33.9764 12.4634 31.2359 11.3267 28.3775 11.3236V11.3204Z"/>
<path d="M28.3778 30.8805C26.6418 30.8805 24.9448 30.3657 23.5014 29.4012C22.058 28.4368 20.933 27.0659 20.2687 25.462C19.6043 23.8582 19.4306 22.0933 19.7693 20.3907C20.108 18.6881 20.944 17.1241 22.1716 15.8966C23.3992 14.6691 24.9632 13.8332 26.6659 13.4946C28.3685 13.156 30.1333 13.3299 31.7372 13.9944C33.341 14.6588 34.7118 15.7839 35.6761 17.2274C36.6405 18.6709 37.1552 20.3679 37.1551 22.1039C37.1524 24.4309 36.2268 26.6618 34.5813 28.3072C32.9358 29.9526 30.7048 30.878 28.3778 30.8805ZM28.3778 14.5857C26.8909 14.5857 25.4373 15.0266 24.2009 15.8527C22.9646 16.6789 22.0009 17.853 21.4319 19.2268C20.8629 20.6006 20.714 22.1123 21.0041 23.5706C21.2942 25.029 22.0102 26.3687 23.0616 27.4201C24.1131 28.4715 25.4527 29.1876 26.9111 29.4777C28.3695 29.7678 29.8812 29.6189 31.2549 29.0498C32.6287 28.4808 33.8029 27.5172 34.629 26.2808C35.4551 25.0444 35.896 23.5909 35.896 22.1039C35.8939 20.1106 35.1011 18.1996 33.6916 16.7901C32.2821 15.3807 30.3711 14.5879 28.3778 14.5857Z"/>
<path d="M18.2614 28.795H0.629509C0.462552 28.795 0.302435 28.7287 0.184379 28.6106C0.066323 28.4926 0 28.3324 0 28.1655V17.4638C0 17.2969 0.066323 17.1368 0.184379 17.0187C0.302435 16.9006 0.462552 16.8343 0.629509 16.8343H17.9479C18.1149 16.8343 18.275 16.9006 18.393 17.0187C18.5111 17.1368 18.5774 17.2969 18.5774 17.4638C18.5774 17.6308 18.5111 17.7909 18.393 17.909C18.275 18.027 18.1149 18.0933 17.9479 18.0933H1.25902V27.536H18.2614C18.4284 27.536 18.5885 27.6023 18.7065 27.7204C18.8246 27.8384 18.8909 27.9985 18.8909 28.1655C18.8909 28.3324 18.8246 28.4926 18.7065 28.6106C18.5885 28.7287 18.4284 28.795 18.2614 28.795Z"/>
<path d="M43.4369 28.795H38.4928C38.3258 28.795 38.1657 28.7287 38.0477 28.6106C37.9296 28.4926 37.8633 28.3324 37.8633 28.1655C37.8633 27.9985 37.9296 27.8384 38.0477 27.7204C38.1657 27.6023 38.3258 27.536 38.4928 27.536H42.8074V18.0933H38.8069C38.64 18.0933 38.4798 18.027 38.3618 17.909C38.2437 17.7909 38.1774 17.6308 38.1774 17.4638C38.1774 17.2969 38.2437 17.1368 38.3618 17.0187C38.4798 16.9006 38.64 16.8343 38.8069 16.8343H43.4369C43.6039 16.8343 43.764 16.9006 43.8821 17.0187C44.0001 17.1368 44.0664 17.2969 44.0664 17.4638V28.1655C44.0664 28.3324 44.0001 28.4926 43.8821 28.6106C43.764 28.7287 43.6039 28.795 43.4369 28.795Z"/>
<path d="M11.1819 9.17571H6.2799C6.11294 9.17571 5.95283 9.10939 5.83477 8.99133C5.71671 8.87327 5.65039 8.71316 5.65039 8.5462V6.79491C5.65106 6.28245 5.85497 5.79118 6.21739 5.42888C6.57982 5.06657 7.07115 4.86282 7.58361 4.86232H9.8788C10.3912 4.86282 10.8825 5.06659 11.2448 5.42891C11.6071 5.79124 11.8109 6.28251 11.8114 6.79491V8.5462C11.8114 8.71316 11.7451 8.87327 11.627 8.99133C11.509 9.10939 11.3488 9.17571 11.1819 9.17571ZM6.90941 7.91669H10.5524V6.79491C10.5522 6.61632 10.4812 6.44509 10.3549 6.31881C10.2286 6.19252 10.0574 6.1215 9.8788 6.12134H7.58361C7.40491 6.12134 7.23352 6.19228 7.1071 6.31858C6.98068 6.44488 6.90958 6.61621 6.90941 6.79491V7.91669Z"/>
<path d="M5.06206 3.76949C4.96332 3.76957 4.86594 3.74642 4.7778 3.70191C4.68966 3.6574 4.61323 3.59278 4.55467 3.51328L3.78227 2.462C3.73316 2.39549 3.69764 2.31996 3.67772 2.23973C3.6578 2.15949 3.65389 2.07612 3.66619 1.99437C3.69104 1.82927 3.78046 1.6808 3.91478 1.58163C4.04909 1.48246 4.2173 1.44071 4.38241 1.46556C4.46415 1.47786 4.54268 1.50615 4.6135 1.5488C4.68432 1.59145 4.74604 1.64764 4.79514 1.71414L5.56818 2.76227C5.63725 2.85581 5.67906 2.96664 5.68898 3.08249C5.6989 3.19833 5.67655 3.31466 5.62439 3.41858C5.57224 3.5225 5.49232 3.60994 5.39351 3.67121C5.2947 3.73248 5.18084 3.76519 5.06457 3.76571L5.06206 3.76949Z"/>
<path d="M8.73107 2.56147C8.56412 2.56147 8.404 2.49515 8.28594 2.37709C8.16789 2.25904 8.10156 2.09892 8.10156 1.93196V0.62951C8.10156 0.462553 8.16789 0.302435 8.28594 0.184379C8.404 0.0663232 8.56412 0 8.73107 0C8.89803 0 9.05815 0.0663232 9.1762 0.184379C9.29426 0.302435 9.36058 0.462553 9.36058 0.62951V1.93196C9.36058 2.09892 9.29426 2.25904 9.1762 2.37709C9.05815 2.49515 8.89803 2.56147 8.73107 2.56147Z"/>
<path d="M12.4011 3.76949C12.2848 3.76898 12.171 3.73627 12.0722 3.67499C11.9734 3.61372 11.8935 3.52628 11.8413 3.42236C11.7891 3.31845 11.7668 3.20212 11.7767 3.08627C11.7866 2.97043 11.8284 2.85959 11.8975 2.76606L12.6699 1.71793C12.7689 1.58344 12.9173 1.4938 13.0824 1.46871C13.2475 1.44362 13.4158 1.48515 13.5503 1.58416C13.6848 1.68316 13.7744 1.83153 13.7995 1.99663C13.8246 2.16174 13.7831 2.33004 13.6841 2.46452L12.9047 3.51014C12.8469 3.58971 12.7712 3.65462 12.6837 3.69966C12.5963 3.7447 12.4995 3.76862 12.4011 3.76949Z"/>
</svg>
