<svg width="34" height="34" viewBox="0 0 34 34" fill="none" xmlns="http://www.w3.org/2000/svg">
<path fill-rule="evenodd" clip-rule="evenodd" d="M0 17C0 7.61116 7.61116 0 17 0C26.3888 0 34 7.61116 34 17C34 26.3888 26.3888 34 17 34C7.61116 34 0 26.3888 0 17Z" fill="#FF0000"/>
<path fill-rule="evenodd" clip-rule="evenodd" d="M25.688 12.8018C25.4794 12.0007 24.865 11.3698 24.0847 11.1557C22.6707 10.7666 17.0003 10.7666 17.0003 10.7666C17.0003 10.7666 11.3298 10.7666 9.91569 11.1557C9.13544 11.3698 8.52097 12.0007 8.31244 12.8018C7.93359 14.2538 7.93359 17.2833 7.93359 17.2833C7.93359 17.2833 7.93359 20.3127 8.31244 21.7647C8.52097 22.5659 9.13544 23.1967 9.91569 23.4109C11.3298 23.7999 17.0003 23.7999 17.0003 23.7999C17.0003 23.7999 22.6707 23.7999 24.0847 23.4109C24.865 23.1967 25.4794 22.5659 25.688 21.7647C26.0669 20.3127 26.0669 17.2833 26.0669 17.2833C26.0669 17.2833 26.0669 14.2538 25.688 12.8018Z" fill="white"/>
<path fill-rule="evenodd" clip-rule="evenodd" d="M15.2998 20.4001V14.7334L19.8331 17.5668L15.2998 20.4001Z" fill="#FF0000"/>
</svg>
