<svg width="31" height="20" viewBox="0 0 31 20" xmlns="http://www.w3.org/2000/svg">
<path d="M29.5945 11.0644L21.1647 19.4943C20.5774 20.0816 19.6353 20.0816 19.048 19.4943C18.4608 18.907 18.4608 17.9649 19.048 17.3776L24.9208 11.5049L2.46974 11.5049C1.63776 11.5049 0.964844 10.832 0.964844 9.99999C0.964844 9.16802 1.63776 8.4951 2.46974 8.4951L24.9086 8.4951L19.0358 2.62234C18.4485 2.03507 18.4485 1.09298 19.0358 0.505703C19.6231 -0.0815732 20.5652 -0.0815732 21.1524 0.505703L29.5823 8.93555C29.8759 9.22919 30.0228 9.60847 30.0228 9.99999C30.0228 10.3915 29.8882 10.7708 29.5945 11.0644Z"/>
</svg>
