<svg width="35" height="45" viewBox="0 0 35 45" fill="none" xmlns="http://www.w3.org/2000/svg">
<path d="M35 19.1481C35 16.2126 33.8632 13.4475 31.7988 11.3621C31.5481 11.1089 31.1396 11.107 30.8866 11.3575C30.6335 11.6081 30.6313 12.0166 30.8819 12.2697C32.7056 14.1119 33.7099 16.5546 33.7099 19.1481C33.7099 24.5413 29.3222 28.929 23.9291 28.929C22.0692 28.929 20.2604 28.4048 18.698 27.4133C18.5342 27.3094 18.3325 27.2846 18.1484 27.346L14.5232 28.5542L15.7313 24.9298C15.7927 24.7458 15.768 24.544 15.6642 24.3803C14.6725 22.8166 14.1484 21.0073 14.1484 19.1481C14.1484 13.755 18.5361 9.36728 23.9292 9.36728C25.574 9.36728 27.2004 9.78347 28.6327 10.5707C28.9451 10.7423 29.337 10.6284 29.5087 10.3162C29.6803 10.004 29.5665 9.6118 29.2543 9.44013C28.6483 9.10702 28.0117 8.83274 27.3549 8.61953V2.90121C27.3549 1.58753 26.2858 0.518799 24.9717 0.518799H2.38242C1.06873 0.518799 0 1.58753 0 2.90121V42.1724C0 43.486 1.06873 44.5548 2.38242 44.5548H24.9715C26.2856 44.5548 27.3548 43.486 27.3548 42.1724V36.9001C27.3548 36.5438 27.066 36.255 26.7097 36.255C26.3534 36.255 26.0647 36.5438 26.0647 36.9001V42.1724C26.0647 42.7747 25.5743 43.2647 24.9715 43.2647H2.38242C1.7801 43.2647 1.29012 42.7747 1.29012 42.1724V2.90121C1.29012 2.2989 1.7801 1.80892 2.38242 1.80892H24.9715C25.5743 1.80892 26.0647 2.2989 26.0647 2.90121V8.28573C25.5735 8.1894 25.0755 8.12593 24.5741 8.09669V4.81317C24.5741 3.97855 23.895 3.29943 23.0604 3.29943H18.2259C17.5604 3.29943 16.9794 3.72577 16.78 4.36154L16.7264 4.53347C16.6975 4.6267 16.6119 4.68932 16.5134 4.68932H10.8403C10.742 4.68932 10.6562 4.6261 10.627 4.5327L10.5735 4.36051C10.3745 3.72586 9.79405 3.29943 9.12878 3.29943H4.29428C3.45915 3.29943 2.77969 3.97855 2.77969 4.81317V7.21708C2.77969 7.57341 3.06841 7.86214 3.42474 7.86214C3.78107 7.86214 4.0698 7.57341 4.0698 7.21708V4.81317C4.0698 4.68983 4.17052 4.58955 4.29428 4.58955H9.12878C9.22717 4.58955 9.31301 4.6525 9.34199 4.74539L9.39549 4.91724C9.59434 5.55266 10.1749 5.97952 10.8403 5.97952H16.5134C17.1804 5.97952 17.7611 5.55206 17.9583 4.91663L18.0113 4.74651C18.0408 4.65268 18.127 4.58963 18.2258 4.58963H23.0603C23.1837 4.58963 23.2839 4.68992 23.2839 4.81325V8.09651C17.4785 8.43177 12.8581 13.2602 12.8581 19.1482C12.8581 21.1487 13.3944 23.0984 14.4122 24.8072L12.8911 29.3701C12.8139 29.6019 12.8742 29.8574 13.0469 30.0302C13.1699 30.1532 13.3348 30.2192 13.5032 30.2192C13.5714 30.2192 13.6403 30.2083 13.7071 30.1861L18.2707 28.6651C19.7943 29.573 21.5105 30.0966 23.2839 30.1992V40.2604C23.2839 40.3837 23.1837 40.484 23.0603 40.484H4.29437C4.1706 40.484 4.06989 40.3837 4.06989 40.2604V10.2274C4.06989 9.87103 3.78116 9.5823 3.42483 9.5823C3.0685 9.5823 2.77977 9.87103 2.77977 10.2274V40.2604C2.77977 41.095 3.45923 41.7741 4.29437 41.7741H23.0604C23.895 41.7741 24.5741 41.095 24.5741 40.2604V30.1997C25.0808 30.1705 25.5784 30.1069 26.0647 30.0115V33.8898C26.0647 34.2461 26.3534 34.5349 26.7097 34.5349C27.066 34.5349 27.3548 34.2461 27.3548 33.8898V29.6759C31.7876 28.2298 35 24.0573 35 19.1481Z" fill="#244F68"/>
<path d="M24.1952 15.9067C24.1952 15.4202 24.0058 14.9628 23.6618 14.6187L21.9982 12.955C21.654 12.611 21.1967 12.4216 20.7101 12.4216C20.2235 12.4216 19.7662 12.611 19.422 12.955L18.7566 13.6205C16.9457 15.4315 16.9457 18.3782 18.7566 20.1892L23.0822 24.5146C23.9595 25.3919 25.1259 25.8751 26.3666 25.8751C27.6072 25.8751 28.7737 25.3919 29.651 24.5146L30.3164 23.8493C30.6604 23.5052 30.8498 23.0479 30.8498 22.5612C30.8498 22.0746 30.6604 21.6173 30.3164 21.2733L28.6527 19.6095C27.9424 18.8994 26.7871 18.8994 26.0768 19.6095L25.7011 19.9853L23.286 17.5702L23.6618 17.1946C24.0058 16.8507 24.1952 16.3933 24.1952 15.9067ZM25.2449 21.3539C25.4969 21.6057 25.9053 21.6057 26.1572 21.3539L26.9891 20.522C27.1962 20.3149 27.5333 20.315 27.7404 20.5219L29.4041 22.1857C29.5045 22.2861 29.5597 22.4195 29.5597 22.5613C29.5597 22.7032 29.5044 22.8366 29.404 22.9371L28.7387 23.6024C28.1051 24.2361 27.2627 24.5851 26.3666 24.5851C25.4705 24.5851 24.6281 24.2361 23.9946 23.6024L19.669 19.2771C18.3611 17.9691 18.3611 15.8408 19.669 14.5329L20.3344 13.8675C20.4348 13.7671 20.5682 13.7118 20.7101 13.7118C20.852 13.7118 20.9854 13.7671 21.0858 13.8675L22.7494 15.5311C22.9566 15.7382 22.9566 16.0754 22.7495 16.2825L21.9177 17.1143C21.7966 17.2352 21.7287 17.3993 21.7287 17.5705C21.7287 17.7416 21.7966 17.9055 21.9176 18.0266L25.2449 21.3539Z" fill="#244F68"/>
</svg>
