<svg width="44" height="33" viewBox="0 0 44 33" xmlns="http://www.w3.org/2000/svg">
<path d="M27.5759 3.70987C20.4989 3.70987 14.7412 9.46752 14.7412 16.5446C14.7412 19.7036 15.8992 22.7394 18.002 25.0929C18.2672 25.3897 18.7229 25.4155 19.0199 25.1502C19.3168 24.8849 19.3424 24.4293 19.0772 24.1323C17.2109 22.0435 16.1831 19.3487 16.1831 16.5447C16.1831 10.2625 21.2939 5.15166 27.5761 5.15166C33.8582 5.15166 38.9691 10.2625 38.9691 16.5447C38.9691 22.8268 33.858 27.9376 27.576 27.9376C25.1846 27.9376 22.896 27.2051 20.9576 25.8192C20.6337 25.5876 20.1835 25.6625 19.9519 25.9864C19.7203 26.3102 19.7951 26.7604 20.1191 26.992C22.3035 28.5538 24.8821 29.3794 27.576 29.3794C34.6531 29.3794 40.4107 23.6217 40.4107 16.5447C40.4107 9.4676 34.653 3.70987 27.5759 3.70987Z"  stroke="white" stroke-width="0.2"/>
<path d="M35.2452 0.325928H3.92286C2.31217 0.325928 1.00195 1.63615 1.00195 3.24675V23.3434C1.00195 23.7415 1.32473 24.0642 1.72281 24.0642C2.12089 24.0642 2.44366 23.7415 2.44366 23.3434V3.24675C2.44366 2.43107 3.10718 1.76764 3.92277 1.76764H35.2452C35.6432 1.76764 35.966 1.44486 35.966 1.04678C35.9661 0.648623 35.6433 0.325928 35.2452 0.325928Z"  stroke="white" stroke-width="0.2"/>
<path d="M40.0789 0.325928H37.7443C37.3462 0.325928 37.0234 0.648705 37.0234 1.04678C37.0234 1.44486 37.3462 1.76764 37.7443 1.76764H40.0789C40.8945 1.76764 41.558 2.43115 41.558 3.24675V29.8426C41.558 30.6582 40.8945 31.3217 40.0789 31.3217H3.92277C3.1071 31.3217 2.44366 30.6582 2.44366 29.8426V25.7463C2.44366 25.3482 2.12088 25.0254 1.72281 25.0254C1.32473 25.0254 1.00195 25.3482 1.00195 25.7463V29.8426C1.00195 31.4532 2.31217 32.7634 3.92286 32.7634H40.079C41.6896 32.7634 42.9999 31.4532 42.9999 29.8426V3.24675C42.9998 1.63615 41.6895 0.325928 40.0789 0.325928Z"  stroke="white" stroke-width="0.2"/>
<path d="M35.9016 12.7884C34.5802 11.9286 32.9309 11.7965 31.49 12.4349L29.283 13.4121C29.0142 13.265 28.7284 13.1537 28.4313 13.0807V6.82831C28.4313 6.43023 28.1085 6.10745 27.7104 6.10745C26.1345 6.10745 24.6803 6.89631 23.8206 8.2176C22.9607 9.53906 22.8286 11.1885 23.4671 12.6296L24.4437 14.8351C24.2964 15.1044 24.185 15.3907 24.1118 15.6883H17.8605V15.6884C17.4624 15.6884 17.1396 16.0112 17.1396 16.4092C17.1396 17.9859 17.9287 19.4405 19.2504 20.3002C20.0176 20.7992 20.8952 21.053 21.7784 21.0529C22.4165 21.0529 23.0576 20.9205 23.6619 20.6525L25.8671 19.6756C26.1367 19.8235 26.423 19.9353 26.7205 20.0085V26.26C26.7205 26.6581 27.0433 26.9809 27.4413 26.9809C29.0172 26.9809 30.4712 26.192 31.331 24.8706C32.191 23.5488 32.3233 21.8991 31.6847 20.4579L30.708 18.2519C30.855 17.9829 30.966 17.6971 31.0391 17.4001H37.2914C37.6895 17.4001 38.0123 17.0773 38.0123 16.6793C38.012 15.1027 37.2231 13.6482 35.9016 12.7884ZM23.0777 19.3344C22.0844 19.7749 20.9474 19.6842 20.0366 19.0916C19.3316 18.6329 18.8463 17.9288 18.6629 17.1301H24.0562C24.1467 17.6712 24.3613 18.1826 24.679 18.6252L23.0777 19.3344ZM25.0291 9.00399C25.4876 8.29913 26.1914 7.81427 26.9895 7.63078V13.0248C26.4482 13.1154 25.9368 13.3298 25.4944 13.6471L24.7854 12.0457C24.3452 11.0521 24.4363 9.91507 25.0291 9.00399ZM27.488 18.6695C27.4831 18.6692 27.4782 18.6689 27.4733 18.6688C27.0657 18.6507 26.6748 18.5154 26.343 18.2774C26.3357 18.2722 26.3284 18.2672 26.321 18.2622C25.7739 17.862 25.4481 17.222 25.4481 16.5449C25.4481 16.5149 25.4486 16.4849 25.4504 16.4549C25.4507 16.4508 25.4509 16.4466 25.451 16.4425C25.4699 16.0329 25.6052 15.6416 25.8435 15.3093C26.242 14.7506 26.8893 14.4168 27.575 14.4168C27.6047 14.4168 27.6344 14.4172 27.6641 14.4191C27.6685 14.4194 27.6729 14.4196 27.6773 14.4198C28.0862 14.4386 28.4772 14.574 28.8101 14.8127C29.3692 15.2107 29.703 15.8582 29.703 16.5447C29.703 16.5743 29.7025 16.6039 29.7007 16.6327C29.7004 16.6372 29.7002 16.6417 29.7 16.6461C29.6812 17.0548 29.5459 17.4461 29.3084 17.7784C28.9094 18.3378 28.2614 18.6717 27.5751 18.6717C27.5456 18.6718 27.5167 18.6713 27.488 18.6695ZM30.1226 24.0844C29.664 24.7892 28.9603 25.2742 28.1622 25.4576V20.0635C28.7035 19.9727 29.2149 19.758 29.6574 19.4405L30.3664 21.0419C30.8068 22.0356 30.7156 23.1729 30.1226 24.0844ZM31.0949 15.9583C31.0043 15.4165 30.7895 14.9048 30.472 14.4625L32.074 13.7531C33.0674 13.3129 34.2045 13.404 35.1155 13.9967C35.8205 14.4554 36.3056 15.1596 36.4891 15.9583H31.0949V15.9583Z"  stroke="white" stroke-width="0.2"/>
<path d="M12.4499 5.08344H4.95328C4.5552 5.08344 4.23242 5.40621 4.23242 5.80429C4.23242 6.20237 4.5552 6.52514 4.95328 6.52514H12.4499C12.848 6.52514 13.1708 6.20237 13.1708 5.80429C13.1708 5.40621 12.8481 5.08344 12.4499 5.08344Z"  stroke="white" stroke-width="0.2"/>
<path d="M12.4499 15.8239H4.95328C4.5552 15.8239 4.23242 16.1467 4.23242 16.5447C4.23242 16.9428 4.5552 17.2656 4.95328 17.2656H12.4499C12.848 17.2656 13.1708 16.9428 13.1708 16.5447C13.1708 16.1467 12.8481 15.8239 12.4499 15.8239Z"  stroke="white" stroke-width="0.2"/>
<path d="M12.4499 22.9841H4.95328C4.5552 22.9841 4.23242 23.3069 4.23242 23.705C4.23242 24.103 4.5552 24.4258 4.95328 24.4258H12.4499C12.848 24.4258 13.1708 24.103 13.1708 23.705C13.1708 23.3069 12.8481 22.9841 12.4499 22.9841Z"  stroke="white" stroke-width="0.2"/>
<path d="M12.4499 19.4041H4.95328C4.5552 19.4041 4.23242 19.7268 4.23242 20.1249C4.23242 20.523 4.5552 20.8458 4.95328 20.8458H12.4499C12.848 20.8458 13.1708 20.523 13.1708 20.1249C13.1708 19.7268 12.8481 19.4041 12.4499 19.4041Z"  stroke="white" stroke-width="0.2"/>
<path d="M12.4499 26.5643H4.95328C4.5552 26.5643 4.23242 26.887 4.23242 27.2851C4.23242 27.6832 4.5552 28.006 4.95328 28.006H12.4499C12.848 28.006 13.1708 27.6832 13.1708 27.2851C13.1708 26.887 12.8481 26.5643 12.4499 26.5643Z"  stroke="white" stroke-width="0.2"/>
<path d="M12.4499 12.2438H11.633C11.2349 12.2438 10.9121 12.5666 10.9121 12.9647C10.9121 13.3627 11.2349 13.6855 11.633 13.6855H12.4499C12.8479 13.6855 13.1707 13.3627 13.1707 12.9647C13.1707 12.5666 12.8481 12.2438 12.4499 12.2438Z"  stroke="white" stroke-width="0.2"/>
<path d="M9.23017 12.2438H4.95328C4.5552 12.2438 4.23242 12.5666 4.23242 12.9647C4.23242 13.3627 4.5552 13.6855 4.95328 13.6855H9.23017C9.62825 13.6855 9.95102 13.3627 9.95102 12.9647C9.95102 12.5666 9.62825 12.2438 9.23017 12.2438Z"  stroke="white" stroke-width="0.2"/>
<path d="M12.4499 8.66357H4.95328C4.5552 8.66357 4.23242 8.98635 4.23242 9.38443C4.23242 9.78251 4.5552 10.1053 4.95328 10.1053H12.4499C12.848 10.1053 13.1708 9.78251 13.1708 9.38443C13.1708 8.98627 12.8481 8.66357 12.4499 8.66357Z"  stroke="white" stroke-width="0.2"/>
</svg>
