<svg width="34" height="34" viewBox="0 0 34 34" fill="none" xmlns="http://www.w3.org/2000/svg">
<path fill-rule="evenodd" clip-rule="evenodd" d="M0 17C0 7.61116 7.61116 0 17 0C26.3888 0 34 7.61116 34 17C34 26.3888 26.3888 34 17 34C7.61116 34 0 26.3888 0 17Z" fill="#F68634"/>
<path fill-rule="evenodd" clip-rule="evenodd" d="M18.8708 12.8871C18.8708 11.8855 18.0267 11.071 16.9891 11.071C15.9522 11.071 15.1074 11.8855 15.1074 12.8871C15.1074 13.888 15.9522 14.703 16.9891 14.703C18.0267 14.703 18.8708 13.888 18.8708 12.8871ZM21.5336 12.8871C21.5336 15.3056 19.4958 17.2729 16.989 17.2729C14.4827 17.2729 12.4444 15.3056 12.4444 12.8871C12.4444 10.4678 14.4827 8.5 16.989 8.5C19.4958 8.5 21.5336 10.4678 21.5336 12.8871ZM21.4782 19.7987C20.6564 20.2969 19.7643 20.6502 18.8392 20.8536L21.3798 23.3062C21.9002 23.8076 21.9002 24.6218 21.3798 25.1237C20.8598 25.6255 20.0172 25.6255 19.4978 25.1237L16.9999 22.7136L14.5042 25.1237C14.244 25.3743 13.903 25.4998 13.562 25.4998C13.2216 25.4998 12.8811 25.3743 12.6209 25.1237C12.101 24.6218 12.101 23.8081 12.6204 23.3062L15.1612 20.8536C14.2361 20.6502 13.3439 20.2964 12.5222 19.7987C11.9003 19.4202 11.7135 18.6272 12.1054 18.0264C12.4961 17.4248 13.3178 17.2437 13.9408 17.6222C15.8013 18.7519 18.198 18.7522 20.0596 17.6222C20.6825 17.2437 21.504 17.4248 21.8956 18.0264C22.2874 18.6267 22.1001 19.4202 21.4782 19.7987Z" fill="white"/>
</svg>
