<svg width="34" height="34" viewBox="0 0 34 34" fill="none" xmlns="http://www.w3.org/2000/svg">
<mask id="mask0" maskUnits="userSpaceOnUse" x="0" y="0" width="34" height="34">
<path fill-rule="evenodd" clip-rule="evenodd" d="M0 17C0 7.61116 7.61116 0 17 0C26.3888 0 34 7.61116 34 17C34 26.3888 26.3888 34 17 34C7.61116 34 0 26.3888 0 17Z" fill="white"/>
</mask>
<g mask="url(#mask0)">
<path fill-rule="evenodd" clip-rule="evenodd" d="M0 17C0 7.61116 7.61116 0 17 0C26.3888 0 34 7.61116 34 17C34 26.3888 26.3888 34 17 34C7.61116 34 0 26.3888 0 17Z" fill="#6B5D53"/>
<path fill-rule="evenodd" clip-rule="evenodd" d="M17.0011 7.93335C14.5387 7.93335 14.2297 7.94412 13.2626 7.98813C12.2973 8.03233 11.6385 8.18514 11.062 8.40935C10.4657 8.64093 9.95983 8.95072 9.45587 9.45487C8.95153 9.95883 8.64175 10.4647 8.40941 11.0608C8.18463 11.6375 8.03163 12.2965 7.98818 13.2614C7.94493 14.2285 7.93359 14.5377 7.93359 17.0001C7.93359 19.4625 7.94455 19.7706 7.98837 20.7377C8.03276 21.7029 8.18557 22.3618 8.4096 22.9383C8.64137 23.5346 8.95115 24.0405 9.4553 24.5444C9.95907 25.0487 10.4649 25.3593 11.0609 25.5909C11.6377 25.8151 12.2968 25.9679 13.2618 26.0121C14.2289 26.0561 14.5378 26.0669 17 26.0669C19.4625 26.0669 19.7706 26.0561 20.7378 26.0121C21.703 25.9679 22.3626 25.8151 22.9395 25.5909C23.5356 25.3593 24.0407 25.0487 24.5445 24.5444C25.0488 24.0405 25.3586 23.5346 25.5909 22.9385C25.8138 22.3618 25.9668 21.7027 26.0121 20.7379C26.0556 19.7708 26.0669 19.4625 26.0669 17.0001C26.0669 14.5377 26.0556 14.2287 26.0121 13.2616C25.9668 12.2964 25.8138 11.6375 25.5909 11.061C25.3586 10.4647 25.0488 9.95883 24.5445 9.45487C24.0401 8.95053 23.5358 8.64075 22.9389 8.40935C22.3609 8.18514 21.7017 8.03233 20.7364 7.98813C19.7693 7.94412 19.4614 7.93335 16.9983 7.93335H17.0011ZM16.1875 9.5675C16.4289 9.56712 16.6983 9.5675 17.0009 9.5675C19.4217 9.5675 19.7086 9.57619 20.6646 9.61963C21.5486 9.66006 22.0284 9.80777 22.348 9.93187C22.7711 10.0962 23.0728 10.2927 23.3899 10.61C23.7073 10.9273 23.9037 11.2296 24.0684 11.6527C24.1925 11.9719 24.3404 12.4517 24.3807 13.3357C24.4241 14.2915 24.4336 14.5786 24.4336 16.9983C24.4336 19.418 24.4241 19.7051 24.3807 20.6609C24.3402 21.5449 24.1925 22.0247 24.0684 22.3439C23.9041 22.767 23.7073 23.0683 23.3899 23.3854C23.0726 23.7028 22.7713 23.8992 22.348 24.0636C22.0288 24.1882 21.5486 24.3356 20.6646 24.376C19.7088 24.4194 19.4217 24.4289 17.0009 24.4289C14.5799 24.4289 14.2929 24.4194 13.3372 24.376C12.4532 24.3352 11.9734 24.1875 11.6536 24.0634C11.2305 23.899 10.9282 23.7026 10.6109 23.3852C10.2936 23.0679 10.0971 22.7664 9.9324 22.3431C9.8083 22.0239 9.6604 21.5441 9.62017 20.6601C9.57672 19.7043 9.56803 19.4172 9.56803 16.996C9.56803 14.5748 9.57672 14.2892 9.62017 13.3334C9.66059 12.4494 9.8083 11.9696 9.9324 11.65C10.0967 11.2269 10.2936 10.9247 10.6109 10.6073C10.9282 10.29 11.2305 10.0936 11.6536 9.92885C11.9732 9.80418 12.4532 9.65685 13.3372 9.61623C14.1736 9.57846 14.4977 9.56712 16.1875 9.56523V9.5675ZM21.8405 11.073C21.2398 11.073 20.7525 11.5598 20.7525 12.1607C20.7525 12.7613 21.2398 13.2487 21.8405 13.2487C22.4412 13.2487 22.9285 12.7613 22.9285 12.1607C22.9285 11.56 22.4412 11.0727 21.8405 11.0727V11.073ZM17.0011 12.3441C14.4297 12.3441 12.3449 14.4288 12.3449 17.0002C12.3449 19.5716 14.4297 21.6554 17.0011 21.6554C19.5725 21.6554 21.6565 19.5716 21.6565 17.0002C21.6565 14.4288 19.5723 12.3441 17.0009 12.3441H17.0011ZM17.0008 13.9782C18.6698 13.9782 20.023 15.3312 20.023 17.0005C20.023 18.6695 18.6698 20.0227 17.0008 20.0227C15.3315 20.0227 13.9785 18.6695 13.9785 17.0005C13.9785 15.3312 15.3315 13.9782 17.0008 13.9782Z" fill="white"/>
</g>
</svg>
