<svg width="41" height="44" viewBox="0 0 41 44" xmlns="http://www.w3.org/2000/svg">
<path d="M40.7119 13.7391C40.7025 13.6172 40.6586 13.4981 40.5854 13.3999L35.7865 7.00147V0.644522C35.7865 0.288566 35.498 -1.52588e-05 35.142 -1.52588e-05H28.5376C28.1816 -1.52588e-05 27.8931 0.288566 27.8931 0.644522C27.8931 1.00048 28.1816 1.28906 28.5376 1.28906H34.4975V6.57083H6.21687V1.28906H25.7292C26.0851 1.28906 26.3737 1.00048 26.3737 0.644522C26.3737 0.288566 26.0851 -1.52588e-05 25.7292 -1.52588e-05H5.57233C5.21629 -1.52588e-05 4.92779 0.288566 4.92779 0.644522V7.00147L0.128908 13.3999C0.0465786 13.5103 0 13.649 0 13.7866V16.2507C0 18.679 2.89715 20.241 4.92779 18.7686V39.4255H2.28725C1.93121 39.4255 1.64271 39.7141 1.64271 40.07V43.3554C1.64271 43.7114 1.93121 44 2.28725 44H38.427C38.783 44 39.0715 43.7114 39.0715 43.3554V40.07C39.0715 39.7141 38.783 39.4255 38.427 39.4255H35.7864V31.6184C35.7864 31.2625 35.4979 30.9739 35.1419 30.9739C34.7859 30.9739 34.4974 31.2625 34.4974 31.6184V39.4256H19.3593V22.1523C19.3593 21.7964 19.0708 21.5078 18.7148 21.5078H13.6986C13.3425 21.5078 13.054 21.7964 13.054 22.1523C13.054 22.5083 13.3425 22.7968 13.6986 22.7968H18.0703V39.4256H9.50229V22.7968H10.8893C11.2454 22.7968 11.5339 22.5083 11.5339 22.1523C11.5339 21.7964 11.2454 21.5078 10.8893 21.5078H8.85775C8.50171 21.5078 8.21321 21.7964 8.21321 22.1523V39.4256H6.21687V18.7681C7.53843 19.727 9.52334 19.4127 10.5009 18.1427C11.7296 19.7391 14.2004 19.7391 15.429 18.1427C16.6577 19.7391 19.1285 19.7391 20.3572 18.1427C21.5858 19.7391 24.0566 19.7391 25.2853 18.1428C26.514 19.7391 28.9848 19.7391 30.2134 18.1427C31.1909 19.4127 33.1758 19.727 34.4975 18.7681V28.8091C34.4975 29.1651 34.7859 29.4536 35.142 29.4536C35.498 29.4536 35.7865 29.1651 35.7865 28.8091V18.7686C37.7962 20.2257 40.7143 18.6795 40.7143 16.2507V13.7866C40.7143 13.7706 40.713 13.7548 40.7119 13.7391ZM37.7824 42.711H2.93179V40.7146H37.7824V42.711ZM25.8201 13.1417L24.8299 7.86025H27.3027L29.2832 13.1417H25.8201ZM11.4311 13.1417L13.4116 7.86025H15.8844L14.8941 13.1417H11.4311ZM16.2057 13.1417L17.1959 7.86025H19.7125V13.1417H16.2057ZM21.0017 13.1417V7.86025H23.5183L24.5085 13.1417H21.0017ZM12.0349 7.86025L10.0544 13.1417H6.675L9.64581 7.86025H12.0349ZM30.66 13.1417L28.6794 7.86025H31.0684L34.0392 13.1417H30.66ZM35.5186 13.1421L32.5476 7.86033H34.8194L38.7808 13.1421H35.5186ZM5.89503 7.86025H8.16681L5.19583 13.142H1.93361L5.89503 7.86025ZM3.10865 18.0702C2.10532 18.0702 1.28908 17.254 1.28908 16.2507V14.4312H4.92779V16.259C4.92324 17.2585 4.10914 18.0702 3.10865 18.0702ZM9.85627 16.2507C9.85627 17.254 9.04003 18.0702 8.0367 18.0702C7.03345 18.0702 6.21721 17.254 6.21721 16.2507V14.4312H9.85627V16.2507ZM14.7845 16.2507C14.7845 17.254 13.9682 18.0702 12.9649 18.0702C11.9616 18.0702 11.1453 17.254 11.1453 16.2507V14.4312H14.7845V16.2507ZM19.7126 16.2507C19.7126 17.254 18.8964 18.0702 17.893 18.0702C16.8898 18.0702 16.0736 17.254 16.0736 16.2507V14.4312H19.7126V16.2507ZM22.8213 18.0702C21.8179 18.0702 21.0017 17.254 21.0017 16.2507V14.4312H24.6408V16.2507V16.2518C24.6402 17.2546 23.8242 18.0702 22.8213 18.0702ZM29.5689 16.2507C29.5689 17.254 28.7526 18.0702 27.7493 18.0702C26.7464 18.0702 25.9304 17.2546 25.9298 16.2518C25.9298 16.2514 25.9298 16.2511 25.9298 16.2507V14.4312H29.5689V16.2507ZM34.497 16.2507C34.497 17.254 33.6808 18.0702 32.6775 18.0702C31.6742 18.0702 30.858 17.254 30.858 16.2507V14.4312H34.497V16.2507ZM39.4252 16.2507C39.4252 17.254 38.609 18.0702 37.6057 18.0702C36.6052 18.0702 35.7911 17.2585 35.7865 16.259V14.4312H39.4252V16.2507Z" />
<path d="M22 21.5078C21.644 21.5078 21.3555 21.7963 21.3555 22.1523V33.4992C21.3555 33.8551 21.644 34.1437 22 34.1437H31.8563C32.2123 34.1437 32.5008 33.8551 32.5008 33.4992V22.1523C32.5008 21.7963 32.2123 21.5078 31.8563 21.5078H22ZM22.6445 22.7968H31.2117V29.6833H22.6445V22.7968ZM31.2117 32.8546H22.6445V30.9724H31.2117V32.8546Z" />
<path d="M11.499 31.8565V35.1419C11.499 35.4978 11.7875 35.7864 12.1436 35.7864C12.4996 35.7864 12.7881 35.4978 12.7881 35.1419V31.8565C12.7881 31.5005 12.4996 31.2119 12.1436 31.2119C11.7875 31.2119 11.499 31.5005 11.499 31.8565Z" />
</svg>
