<svg width="34" height="34" viewBox="0 0 34 34" fill="none" xmlns="http://www.w3.org/2000/svg">
<path fill-rule="evenodd" clip-rule="evenodd" d="M0 17C0 7.61116 7.61116 0 17 0C26.3888 0 34 7.61116 34 17C34 26.3888 26.3888 34 17 34C7.61116 34 0 26.3888 0 17Z" fill="#4C6C91"/>
<path fill-rule="evenodd" clip-rule="evenodd" d="M17.8895 22.5788C17.8895 22.5788 18.2168 22.5431 18.3844 22.3664C18.5379 22.2044 18.5325 21.8989 18.5325 21.8989C18.5325 21.8989 18.5122 20.472 19.1871 20.2613C19.8523 20.0541 20.7063 21.6412 21.6128 22.2514C22.2975 22.7128 22.8172 22.6119 22.8172 22.6119L25.2393 22.5788C25.2393 22.5788 26.5058 22.5022 25.9054 21.5245C25.8557 21.4444 25.555 20.8011 24.105 19.4795C22.5857 18.0962 22.7897 18.3199 24.6185 15.9267C25.7324 14.4693 26.1776 13.5796 26.0384 13.1991C25.9063 12.8352 25.0868 12.9319 25.0868 12.9319L22.3604 12.9484C22.3604 12.9484 22.1582 12.9214 22.0083 13.0094C21.862 13.0955 21.7671 13.2967 21.7671 13.2967C21.7671 13.2967 21.336 14.4241 20.7604 15.3834C19.5463 17.4067 19.0611 17.5137 18.8625 17.3884C18.4004 17.095 18.5157 16.2114 18.5157 15.5837C18.5157 13.6222 18.819 12.8048 17.9259 12.5932C17.6297 12.5227 17.4115 12.4766 16.6532 12.4687C15.6803 12.4592 14.8572 12.4722 14.3907 12.696C14.0803 12.8448 13.8408 13.1774 13.9872 13.1965C14.1672 13.22 14.5752 13.3045 14.7916 13.5935C15.071 13.967 15.0612 14.8045 15.0612 14.8045C15.0612 14.8045 15.2217 17.1133 14.6861 17.3997C14.3189 17.5964 13.8151 17.1951 12.7322 15.3591C12.1779 14.4188 11.7593 13.3794 11.7593 13.3794C11.7593 13.3794 11.6786 13.1852 11.534 13.0807C11.3593 12.9545 11.1154 12.9153 11.1154 12.9153L8.52475 12.9319C8.52475 12.9319 8.1354 12.9423 7.99261 13.1086C7.86578 13.2557 7.98285 13.5613 7.98285 13.5613C7.98285 13.5613 10.0112 18.2198 12.3083 20.5677C14.4147 22.7198 16.8058 22.5788 16.8058 22.5788H17.8895Z" fill="white"/>
</svg>
