<svg width="14" height="14" viewBox="0 0 14 14" fill="none" xmlns="http://www.w3.org/2000/svg">
<path d="M7.19522 3.90672C7.19522 3.42017 7.00583 2.96279 6.6618 2.61867L4.99815 0.95502C4.65404 0.610989 4.19673 0.4216 3.7101 0.4216C3.22347 0.4216 2.76617 0.610989 2.42205 0.95502L1.75661 1.62055C-0.0542859 3.43153 -0.0542859 6.37815 1.75661 8.18922L6.0822 12.5146C6.95948 13.3919 8.12591 13.8751 9.36657 13.8751C10.6072 13.8751 11.7737 13.3919 12.651 12.5146L13.3164 11.8493C13.6604 11.5052 13.8498 11.0479 13.8498 10.5612C13.8498 10.0746 13.6604 9.61729 13.3164 9.27335L11.6527 7.60953C10.9424 6.89945 9.78707 6.89945 9.07681 7.60953L8.70113 7.98529L6.28603 5.5702L6.6618 5.1946C7.00583 4.85066 7.19522 4.39327 7.19522 3.90672ZM8.24495 9.35385C8.49695 9.60568 8.90531 9.60568 9.15723 9.35385L9.9891 8.52198C10.1962 8.31488 10.5333 8.31496 10.7404 8.5219L12.4041 10.1857C12.5045 10.2861 12.5597 10.4195 12.5597 10.5613C12.5597 10.7032 12.5044 10.8366 12.404 10.9371L11.7387 11.6024C11.1051 12.2361 10.2627 12.5851 9.36657 12.5851C8.47054 12.5851 7.6281 12.2361 6.99456 11.6024L2.66898 7.27711C1.36106 5.9691 1.36106 3.84084 2.66898 2.53292L3.33442 1.86748C3.43479 1.76711 3.56819 1.7118 3.7101 1.7118C3.85201 1.7118 3.98541 1.76711 4.08578 1.86748L5.74943 3.53113C5.95662 3.73823 5.95662 4.07538 5.74952 4.28249L4.91765 5.11427C4.79664 5.2352 4.72869 5.3993 4.72869 5.57046C4.72869 5.74161 4.79664 5.90554 4.91756 6.02664L8.24495 9.35385Z" fill="#244F68"/>
</svg>
