<svg width="100" height="70" viewBox="0 0 100 70" fill="none" xmlns="http://www.w3.org/2000/svg">
<path d="M97.9397 10.9532C96.7869 6.67034 93.4093 3.29436 89.1262 2.14107C81.3008 0 49.999 0 49.999 0C49.999 0 18.698 0 10.8726 2.05945C6.67188 3.21198 3.21196 6.6711 2.05917 10.9532C0 18.7761 0 35 0 35C0 35 0 51.3055 2.05917 59.0468C3.21272 63.3289 6.58948 66.7056 10.8734 67.8589C18.7804 70 49.9998 70 49.9998 70C49.9998 70 81.3008 70 89.1262 67.9406C93.4101 66.788 96.7869 63.4113 97.9404 59.1291C99.9996 51.3055 99.9996 35.0824 99.9996 35.0824C99.9996 35.0824 100.082 18.7761 97.9397 10.9532Z" fill="#FF0000"/>
<path d="M40.0332 49.9883L66.0624 35L40.0332 20.0117V49.9883Z" fill="white"/>
</svg>
